inDegrees=no
DataType=double
version=3
OpenSimVersion=4.4-2022-10-11-798caa840
endheader
time	elv_angle	shoulder_elv	shoulder_rot	elbow_flexion	pro_sup	deviation	flexion
2.4020851434	0.4755065493	0.6877119071	0.4070654480	1.4510941320	-0.0752529238	-0.0362697490	0.2190182814
2.4062554301	0.4755065493	0.6877119071	0.4070654480	1.4510941320	-0.0752529238	-0.0362697490	0.2190182814
2.4104257168	0.4755065493	0.6877119071	0.4070654480	1.4510941320	-0.0752529238	-0.0362697490	0.2190182814
2.4145960035	0.4755065493	0.6877119071	0.4070654480	1.4510941320	-0.0752529238	-0.0362697490	0.2190182814
2.4187662902	0.4755065493	0.6877119071	0.4070654480	1.4510941320	-0.0752529238	-0.0362697490	0.2190182814
2.4229365769	0.4755065493	0.6877119071	0.4070654480	1.4510941320	-0.0752529238	-0.0362697490	0.2190182814
2.4271068636	0.4755065493	0.6877119071	0.4070654480	1.4510941320	-0.0752529238	-0.0362697490	0.2190182814
2.4312771503	0.4755065493	0.6877119071	0.4070654480	1.4510941320	-0.0752529238	-0.0362697490	0.2190182814
2.4354474370	0.4755065493	0.6877119071	0.4070654480	1.4510941320	-0.0752529238	-0.0362697490	0.2190182814
2.4396177237	0.4755065493	0.6877119071	0.4070654480	1.4510941320	-0.0752529238	-0.0362697490	0.2190182814
2.4437880104	0.4755065493	0.6877119071	0.4070654480	1.4510941320	-0.0752529238	-0.0362697490	0.2190182814
2.4479582971	0.4755065493	0.6877119071	0.4070654480	1.4510941320	-0.0752529238	-0.0362697490	0.2190182814
2.4521285838	0.4755065493	0.6877119071	0.4070654480	1.4510941320	-0.0752529238	-0.0362697490	0.2190182814
2.4562988705	0.4774735620	0.6813173119	0.4059653860	1.4587056583	-0.0661536644	-0.0366185817	0.2184939014
2.4604691573	0.4771957737	0.6778902318	0.4055749093	1.4624258798	-0.0621969320	-0.0345690992	0.2186731345
2.4646394440	0.4767693706	0.6748439236	0.4055007981	1.4665641921	-0.0583259070	-0.0317266011	0.2187216697
2.4688097307	0.4773777160	0.6701059621	0.4053125545	1.4731178432	-0.0516665183	-0.0292226844	0.2185840028
2.4729800174	0.4777012924	0.6633173192	0.4045821003	1.4777590542	-0.0454761273	-0.0268424383	0.2201201092
2.4771503041	0.4782805804	0.6567627544	0.4042337835	1.4810587744	-0.0403444076	-0.0247547270	0.2209234223
2.4813205908	0.4799382516	0.6525088984	0.4056611517	1.4860414180	-0.0353048197	-0.0230498401	0.2180971887
2.4854908775	0.4809493136	0.6488800555	0.4088418592	1.4920704617	-0.0312148432	-0.0209380251	0.2145216365
2.4896611642	0.4816477137	0.6454766424	0.4099203596	1.4975497290	-0.0259487466	-0.0194734646	0.2136037938
2.4938314509	0.4830808950	0.6421688129	0.4071771364	1.5012587283	-0.0183348869	-0.0196113412	0.2144105886
2.4980017376	0.4852636927	0.6381279722	0.4053916527	1.5033001156	-0.0115472357	-0.0203174721	0.2102577455
2.5021720243	0.4871712645	0.6347213177	0.4084392905	1.5056435190	-0.0087993575	-0.0196383831	0.2019461522
2.5063423110	0.4884117684	0.6319550085	0.4142894143	1.5089885117	-0.0090591299	-0.0178883647	0.1940834050
2.5105125977	0.4897525499	0.6278664156	0.4159106680	1.5119200653	-0.0075430505	-0.0176559862	0.1899602355
2.5146828844	0.4914760332	0.6242886577	0.4141506443	1.5145608955	-0.0058362750	-0.0173069053	0.1833082121
2.5188531712	0.4932835394	0.6219433632	0.4130104782	1.5169243693	-0.0040668491	-0.0160144352	0.1743108422
2.5230234579	0.4947634815	0.6197120889	0.4151971289	1.5183739705	-0.0005656143	-0.0147238189	0.1693560422
2.5271937446	0.4964322815	0.6175867142	0.4167779348	1.5181966696	0.0017349668	-0.0135327973	0.1657390077
2.5313640313	0.4981426491	0.6155678693	0.4163490953	1.5181329618	0.0030122548	-0.0114556615	0.1587187883
2.5355343180	0.4995607053	0.6138306894	0.4155212518	1.5197503727	0.0053380154	-0.0079877094	0.1468166656
2.5397046047	0.5013585675	0.6132733014	0.4158484446	1.5200269303	0.0078761716	-0.0052162461	0.1360637543
2.5438748914	0.5031158411	0.6133795809	0.4163981924	1.5192762426	0.0093739838	-0.0031705988	0.1268108824
2.5480451781	0.5043488461	0.6130524897	0.4160835833	1.5192340101	0.0096795733	-0.0008564570	0.1167220588
2.5522154648	0.5056509501	0.6119549760	0.4160263812	1.5198582849	0.0102780985	0.0018365144	0.1059717419
2.5563857515	0.5067557766	0.6112682326	0.4165560094	1.5202044557	0.0102147828	0.0037919237	0.0964782434
2.5605560382	0.5075352007	0.6114900079	0.4173938514	1.5201513564	0.0093440269	0.0046407968	0.0876958885
2.5647263249	0.5084597123	0.6114245234	0.4181861019	1.5207306064	0.0095956336	0.0055373225	0.0759955426
2.5688966116	0.5090490015	0.6106421167	0.4192982616	1.5207994388	0.0095944732	0.0065297804	0.0642019365
2.5730668983	0.5094893755	0.6097497891	0.4202293416	1.5201287722	0.0090438745	0.0075136424	0.0548904076
2.5772371851	0.5106660382	0.6096862065	0.4199601797	1.5198621747	0.0090965184	0.0084449914	0.0475954378
2.5814074718	0.5120899588	0.6096503560	0.4198970638	1.5196413018	0.0077224219	0.0085946082	0.0403034620
2.5855777585	0.5132988538	0.6093159510	0.4202629370	1.5192586955	0.0073191725	0.0082850163	0.0318290884
2.5897480452	0.5141721237	0.6090352434	0.4202961881	1.5189512989	0.0106845595	0.0084206801	0.0230767411
2.5939183319	0.5147158421	0.6089609975	0.4205422986	1.5189428371	0.0106208471	0.0087381898	0.0176351268
2.5980886186	0.5151313654	0.6090089130	0.4212210799	1.5190825325	0.0088770327	0.0091119630	0.0145852723
2.6022589053	0.5156028238	0.6091871182	0.4220138153	1.5190659279	0.0097851780	0.0093816933	0.0116677859
2.6064291920	0.5160742622	0.6098295528	0.4223417652	1.5187970976	0.0095480563	0.0090225266	0.0100573692
2.6105994787	0.5166894128	0.6102755887	0.4225305080	1.5184874864	0.0092237093	0.0087770089	0.0082896521
2.6147697654	0.5174348127	0.6101095592	0.4228211764	1.5183461971	0.0101904597	0.0091173748	0.0055824681
2.6189400521	0.5179501759	0.6100044619	0.4227198082	1.5183744262	0.0103080716	0.0092492333	0.0040716145
2.6231103388	0.5183030145	0.6101497255	0.4223646064	1.5186166203	0.0100454695	0.0092753571	0.0031062848
2.6272806255	0.5186411033	0.6103765676	0.4221348296	1.5187809301	0.0099059199	0.0094912016	0.0024920920
2.6314509123	0.5189869878	0.6104096715	0.4222203269	1.5184121383	0.0094155643	0.0098540146	0.0031156987
2.6356211990	0.5192843862	0.6102776259	0.4221088084	1.5181492515	0.0091835761	0.0098266811	0.0026100386
2.6397914857	0.5196577073	0.6102184531	0.4218255668	1.5180564497	0.0096212327	0.0097134855	0.0006934502
2.6439617724	0.5202550430	0.6104353429	0.4218367406	1.5177525171	0.0103794210	0.0101468377	-0.0005145008
2.6481320591	0.5207402664	0.6106613322	0.4219067029	1.5178979797	0.0103304561	0.0100941787	-0.0001625692
2.6523023458	0.5209603950	0.6105910023	0.4218509854	1.5181741194	0.0100197825	0.0097118456	0.0002926526
2.6564726325	0.5210960945	0.6102505661	0.4217180686	1.5179364044	0.0104111636	0.0097353195	-0.0004020598
2.6606429192	0.5215585357	0.6102660076	0.4217470091	1.5177136588	0.0105582558	0.0097705513	-0.0000715463
2.6648132059	0.5220166781	0.6105689830	0.4219036249	1.5178239678	0.0105127519	0.0096667934	-0.0000060693
2.6689834926	0.5221552858	0.6107972113	0.4220671570	1.5181361329	0.0106301751	0.0095904465	-0.0014497167
2.6731537793	0.5223348940	0.6108214417	0.4222486005	1.5181717329	0.0106806897	0.0098031811	-0.0021326666
2.6773240660	0.5223648138	0.6105705506	0.4224501446	1.5179562286	0.0110125968	0.0100953653	-0.0018640607
2.6814943527	0.5221426766	0.6102516566	0.4226145686	1.5177190439	0.0114609628	0.0102629775	-0.0018781475
2.6856646394	0.5219861573	0.6103060587	0.4226501578	1.5176339136	0.0111991784	0.0103095317	-0.0032901338
2.6898349262	0.5220248506	0.6106069673	0.4226196888	1.5177100516	0.0111361995	0.0099665233	-0.0040199770
2.6940052129	0.5220892885	0.6109156316	0.4225808552	1.5178027833	0.0113890028	0.0095937852	-0.0037508711
2.6981754996	0.5219160564	0.6110847942	0.4225480170	1.5177763760	0.0111091537	0.0098702597	-0.0041032508
2.7023457863	0.5217446372	0.6110671253	0.4225629570	1.5178793983	0.0108304513	0.0100650451	-0.0037720070
2.7065160730	0.5217660196	0.6110824551	0.4225014761	1.5180062725	0.0106237592	0.0100646441	-0.0031039528
2.7106863597	0.5219018275	0.6112662624	0.4222799107	1.5178672771	0.0101607365	0.0102452352	-0.0033916754
2.7148566464	0.5217746570	0.6111069153	0.4222300057	1.5176004971	0.0096789590	0.0103469148	-0.0036701744
